# xmcd
#
# Track frame offsets:
# 150
# 14560
# 26336
# 39783
# 51676
# 64720
# 76587
# 89452
# 103062
# 115382
# 127985
# 139765
# 154167
# 168612
# 185092
# 196643
# 208371
# 219018
# 229193
# 238262
#
# Disc length: 3334 seconds
#
# Revision: 0
# Processed by: cddbd v1.5.1PL2 Copyright (c) Steve Scherf et al.
# Submitted via: Audion 3.0.2 (http://www.panic.com/audion/)
#
DISCID=170d0414
DTITLE=Various Artist - No. 1 Evergreen Hits
DYEAR=1900
DGENRE=
TTITLE0=Unforgettable - Nat King Cole
TTITLE1=The Great Pretender - The Platters
TTITLE2=Stand By Me - Ben E. King
TTITLE3=Will You Still Love Me Tomorrow - The Shirelles
TTITLE4=Raindrops Keep Falling On My Head - B. J. Thomas
TTITLE5=End of The World - Skeeter Davis
TTITLE6=Tell Laura I Love Her - Ray Peterson
TTITLE7=Build Me Up Buttercups - The Foundations
TTITLE8=Under The Boardwalk - The Drifters
TTITLE9=Bye Bye Love - The Everly Brothers
TTITLE10=Corrina Corrina - Ray Peterson
TTITLE11=Ob-La-Di, Ob-La-Da - The Marmalade
TTITLE12=Silence is Golden - Tremeloes
TTITLE13=Undercover Angel - Alan O'Da
TTITLE14=Before the Next Teardrop Falls - Freddy Fender
TTITLE15=Let Your Love Flow - Billy Joe Royal
TTITLE16=So Much In Love - The Tymes
TTITLE17=Hurt So Bad - The Letterman
TTITLE18=A Groovy Kind of Love - Wayne Fontana
TTITLE19=Soul Man - Sam and Dave
EXTD=
EXTT0=
EXTT1=
EXTT2=
EXTT3=
EXTT4=
EXTT5=
EXTT6=
EXTT7=
EXTT8=
EXTT9=
EXTT10=
EXTT11=
EXTT12=
EXTT13=
EXTT14=
EXTT15=
EXTT16=
EXTT17=
EXTT18=
EXTT19=
PLAYORDER=
